<?xml version="1.0" standalone="no"?>
<!DOCTYPE svg PUBLIC "-//W3C//DTD SVG 20010904//EN"
 "http://www.w3.org/TR/2001/REC-SVG-20010904/DTD/svg10.dtd">
<svg version="1.0" xmlns="http://www.w3.org/2000/svg"
 width="436.000000pt" height="436.000000pt" viewBox="0 0 436.000000 436.000000"
 preserveAspectRatio="xMidYMid meet">
<metadata>
Created by potrace 1.11, written by Peter Selinger 2001-2013
</metadata>
<g transform="translate(0.000000,436.000000) scale(0.100000,-0.100000)"
fill="#000000" stroke="none">
<path d="M82 3750 l-23 -29 4 -448 c2 -246 7 -461 11 -477 82 -323 314 -585
678 -764 l137 -67 1 -62 0 -63 -100 0 -100 0 0 -280 0 -280 593 0 594 0 0
-251 c0 -137 4 -254 9 -258 5 -4 74 -61 153 -125 127 -104 145 -116 160 -103
9 7 45 38 81 67 59 47 101 82 184 152 l28 24 0 247 1 247 588 0 589 0 0 280 0
280 -90 0 c-49 0 -90 3 -91 8 -3 39 -3 105 1 111 3 4 52 31 110 59 151 73 282
164 386 267 152 151 245 306 289 480 24 92 24 104 24 527 l1 433 -23 27 -23
28 -27 -26 c-15 -13 -27 -28 -28 -32 0 -4 -2 -16 -4 -27 -1 -11 -6 -45 -9 -75
-7 -66 -13 -100 -27 -161 -6 -26 -12 -53 -13 -60 -22 -114 -109 -303 -188
-405 -114 -148 -283 -258 -460 -299 -105 -24 -120 -26 -201 -26 -77 0 -77 1
-110 38 -146 168 -350 296 -594 373 l-103 33 1 76 c0 42 0 88 0 104 l-1 27
-305 0 c-237 0 -305 -3 -306 -12 -1 -7 -1 -52 -1 -100 -1 -49 -3 -88 -7 -89
-48 -6 -164 -45 -265 -91 -147 -66 -340 -210 -426 -320 -21 -26 -39 -45 -41
-43 -3 2 -39 5 -81 6 -163 5 -329 59 -468 152 -58 39 -178 159 -218 218 -48
71 -97 174 -130 274 -27 78 -37 119 -56 221 -8 40 -19 129 -20 162 -1 22 -10
40 -30 57 -16 14 -30 25 -30 24 -1 0 -11 -13 -24 -29z"/>
</g>
</svg>
