<?xml version="1.0" encoding="utf-8"?>
<!-- Generator: Adobe Illustrator 21.1.0, SVG Export Plug-In . SVG Version: 6.00 Build 0)  -->
<svg version="1.1" id="Layer_1" xmlns="http://www.w3.org/2000/svg" xmlns:xlink="http://www.w3.org/1999/xlink" x="0px" y="0px"
	 viewBox="0 0 807.4 807.4" style="enable-background:new 0 0 807.4 807.4;" xml:space="preserve">
<style type="text/css">
	.st0{fill:#FFFFFF;}
</style>
<circle cx="403.4" cy="404" r="404"/>
<rect x="471.9" y="499.5" class="st0" width="33.8" height="30.3"/>
<path class="st0" d="M571.4,548.7H404.7c-4.1,0-7.4-3.3-7.4-7.4v-4.2c0-4.1,3.3-7.4,7.4-7.4h166.7c4.1,0,7.4,3.3,7.4,7.4v4.2
	C578.8,545.4,575.5,548.7,571.4,548.7z"/>
<path class="st0" d="M659.4,502.7h-343c-6.6,0-12-5.4-12-12V255.1c0-6.6,5.4-12,12-12h343c6.6,0,12,5.4,12,12v235.5
	C671.4,497.3,666,502.7,659.4,502.7z"/>
<path d="M633.1,451.2H340.4c-6.6,0-12-5.4-12-12V279.1c0-6.6,5.4-12,12-12h292.7c6.6,0,12,5.4,12,12v160.1
	C645.1,445.8,639.7,451.2,633.1,451.2z"/>
<path class="st0" d="M287.6,533.8H149.4c-6.6,0-12-5.4-12-12V319.1c0-6.6,5.4-12,12-12h138.1c6.6,0,12,5.4,12,12v202.7
	C299.6,528.4,294.2,533.8,287.6,533.8z"/>
<path d="M272.1,493.6H168.3c-6.6,0-12-5.4-12-12V335.9c0-6.6,5.4-12,12-12h103.8c6.6,0,12,5.4,12,12v145.7
	C284.1,488.2,278.7,493.6,272.1,493.6z"/>
<path d="M352.9,575.4H281c-6.6,0-12-5.4-12-12V439c0-6.6,5.4-12,12-12h71.9c6.6,0,12,5.4,12,12v124.5
	C364.9,570,359.5,575.4,352.9,575.4z"/>
<path class="st0" d="M341.2,567.9h-49.4c-6.6,0-12-5.4-12-12v-109c0-6.6,5.4-12,12-12h49.4c6.6,0,12,5.4,12,12v109
	C353.2,562.5,347.8,567.9,341.2,567.9z"/>
<circle cx="218.5" cy="512.9" r="10.2"/>
<path d="M330.5,548.7h-27.8c-6.6,0-12-5.4-12-12v-79.2c0-6.6,5.4-12,12-12h27.8c6.6,0,12,5.4,12,12v79.2
	C342.5,543.3,337.1,548.7,330.5,548.7z"/>
</svg>
