<?xml version="1.0" encoding="utf-8"?>
<!-- Generator: Adobe Illustrator 21.1.0, SVG Export Plug-In . SVG Version: 6.00 Build 0)  -->
<svg version="1.1" id="Layer_1" xmlns="http://www.w3.org/2000/svg" xmlns:xlink="http://www.w3.org/1999/xlink" x="0px" y="0px"
	 viewBox="0 0 412.5 412.5" style="enable-background:new 0 0 412.5 412.5;" xml:space="preserve">
<style type="text/css">
	.st0{fill:#FFFFFF;}
	.st1{stroke:#000000;stroke-miterlimit:10;}
	.st2{fill:#FFFFFF;stroke:#000000;stroke-miterlimit:10;}
</style>
<circle cx="206.3" cy="206.3" r="206.3"/>
<path class="st0" d="M327.4,318.6H102.9c-6.6,0-12-5.4-12-12v-196c0-6.6,5.4-12,12-12h224.5c6.6,0,12,5.4,12,12v196
	C339.4,313.2,334,318.6,327.4,318.6z"/>
<rect x="108" y="136.1" width="214.2" height="165.8"/>
<circle class="st1" cx="259.4" cy="117.7" r="9.8"/>
<circle class="st1" cx="286.1" cy="117.7" r="9.8"/>
<circle class="st1" cx="314.2" cy="117.7" r="9.8"/>
<path class="st2" d="M166.7,193.1l4.6-7.5l62.2,24.2l55.8-18.4c0,0,33.4-3.1,9.8,14.9L177.6,249l-34.5-8.6l47.2-15.5L166.7,193.1z"
	/>
<polygon class="st2" points="122.9,225.4 127.5,219.6 154,233.4 135.6,240.3 "/>
</svg>
