<?xml version="1.0" encoding="utf-8"?>
<!-- Generator: Adobe Illustrator 21.1.0, SVG Export Plug-In . SVG Version: 6.00 Build 0)  -->
<svg version="1.1" id="Layer_1" xmlns="http://www.w3.org/2000/svg" xmlns:xlink="http://www.w3.org/1999/xlink" x="0px" y="0px"
	 viewBox="0 0 102.6 84.4" style="enable-background:new 0 0 102.6 84.4;" xml:space="preserve">
<style type="text/css">
	.st0{fill:#FFFFFF;stroke:#231F20;stroke-miterlimit:10;}
</style>
<path class="st0" d="M94.8,15.6h-87C3.5,15.6,0,12.1,0,7.8v0C0,3.5,3.5,0,7.8,0h87c4.3,0,7.8,3.5,7.8,7.8v0
	C102.6,12.1,99.1,15.6,94.8,15.6z"/>
<path class="st0" d="M94.8,50h-87C3.5,50,0,46.5,0,42.2v0c0-4.3,3.5-7.8,7.8-7.8h87c4.3,0,7.8,3.5,7.8,7.8v0
	C102.6,46.5,99.1,50,94.8,50z"/>
<path class="st0" d="M94.8,84.4h-87c-4.3,0-7.8-3.5-7.8-7.8v0c0-4.3,3.5-7.8,7.8-7.8h87c4.3,0,7.8,3.5,7.8,7.8v0
	C102.6,80.9,99.1,84.4,94.8,84.4z"/>
</svg>
