<?xml version="1.0" encoding="utf-8"?>
<!-- Generator: Adobe Illustrator 21.1.0, SVG Export Plug-In . SVG Version: 6.00 Build 0)  -->
<svg version="1.1" id="Layer_1" xmlns="http://www.w3.org/2000/svg" xmlns:xlink="http://www.w3.org/1999/xlink" x="0px" y="0px"
	 viewBox="0 0 382.7 382.7" style="enable-background:new 0 0 382.7 382.7;" xml:space="preserve">
<style type="text/css">
	.st0{fill:#FFFFFF;}
</style>
<circle cx="191.3" cy="191.3" r="191.3"/>
<path class="st0" d="M84.4,115.3h133.4l-9.6,15H92.8V241h198.1V130.9h-34.7l12-15.6h31.7c0,0,5.4,1.2,6,8.4v137c0,0-1.2,5.4-6.6,7.2
	H84.4c0,0-9-2.4-7.8-9.6l-0.1-129.9C76.5,128.5,76,118.9,84.4,115.3z"/>
<path class="st0" d="M156.8,300.2h70c0,0-10.2-2.4-11.4-23.9h-47.9C167.6,276.3,167.6,293,156.8,300.2z"/>
<path class="st0" d="M135.9,218.8c0,0,28.7,4.8,44.9-4.8c0,0,9-9.6-8.4-18.6c0,0-13.2-3.6-15.6,9C156.8,204.5,152,221.2,135.9,218.8
	z"/>
<path class="st0" d="M186.1,199.1l84.4-93.9c0,0,6.6-8.4,0-19.1c0,0-13.8-9-24.5,3.6l-70,99.3C176,188.9,174.8,193.7,186.1,199.1z"
	/>
<path d="M251.4,95.6c0,0,6.6-7.8,9-8.4s-11.4-0.6-15.6,8.4S251.4,95.6,251.4,95.6z"/>
</svg>
